<?xml version="1.0" encoding="utf-8"?>
<!-- Generator: Adobe Illustrator 16.0.0, SVG Export Plug-In . SVG Version: 6.00 Build 0)  -->
<!DOCTYPE svg PUBLIC "-//W3C//DTD SVG 1.1//EN" "http://www.w3.org/Graphics/SVG/1.1/DTD/svg11.dtd">
<svg version="1.1" id="레이어_1" focusable="false"
	 xmlns="http://www.w3.org/2000/svg" xmlns:xlink="http://www.w3.org/1999/xlink" x="0px" y="0px" width="660.449px"
	 height="660.449px" viewBox="-32.585 90.72 660.449 660.449" enable-background="new -32.585 90.72 660.449 660.449"
	 xml:space="preserve">
<path d="M110.561,467.714l233.848-233.848l140.309,140.309L250.869,608.023L110.561,467.714z M473.026,245.56
	c19.373,19.373,50.782,19.373,70.154,0l70.154,70.154c19.372,19.372,19.374,50.782,0.001,70.155L262.563,736.64
	c-19.373,19.373-50.783,19.372-70.155,0l-70.154-70.154c19.373-19.373,19.373-50.781,0-70.154
	c-19.373-19.373-50.781-19.373-70.154-0.001l-70.154-70.154c-19.373-19.373-19.373-50.781,0-70.153L332.717,105.25
	c19.373-19.373,50.781-19.373,70.154,0l70.154,70.154C453.654,194.777,453.653,226.187,473.026,245.56z M361.948,204.636
	c-9.687-9.687-25.391-9.687-35.077,0L81.33,450.176c-9.687,9.687-9.687,25.391,0,35.077l152.002,152.002
	c9.685,9.686,25.39,9.687,35.077-0.001l245.541-245.54c9.687-9.687,9.686-25.392,0-35.077L361.948,204.636z"/>
</svg>
